<?xml version="1.0" standalone="no"?>
<!DOCTYPE svg PUBLIC "-//W3C//DTD SVG 20010904//EN"
 "http://www.w3.org/TR/2001/REC-SVG-20010904/DTD/svg10.dtd">
<svg version="1.0" xmlns="http://www.w3.org/2000/svg"
 width="227.000000pt" height="227.000000pt" viewBox="0 0 227.000000 227.000000"
 preserveAspectRatio="xMidYMid meet">
<metadata>
Created by potrace 1.11, written by Peter Selinger 2001-2013
</metadata>
<g transform="translate(0.000000,227.000000) scale(0.100000,-0.100000)"
fill="#000000" stroke="none">
<path d="M1693 2125 c-61 -17 -119 -45 -183 -88 -52 -36 -223 -205 -295 -292
-28 -32 -58 -68 -67 -80 -52 -62 -68 -79 -71 -75 -2 3 -29 39 -60 81 -129 174
-245 274 -352 304 -47 13 -227 28 -306 26 -102 -4 -312 -82 -324 -121 -17 -53
-29 -157 -29 -250 -1 -104 18 -166 90 -310 181 -358 425 -717 632 -928 39 -40
99 -125 126 -179 30 -60 30 -60 83 -69 37 -6 46 -1 139 61 54 37 101 70 104
74 3 3 28 24 55 46 62 49 764 750 826 825 156 188 231 423 199 624 -20 122
-118 265 -217 315 -96 48 -247 64 -350 36z"/>
</g>
</svg>
